{"accessors" : [{"bufferView" : 0, "byteOffset" : 0, "componentType" : 5123, "count" : 8058, "type" : "SCALAR", "max" : [1542], "min" : [0]}, {"bufferView" : 1, "byteOffset" : 0, "componentType" : 5126, "count" : 1543, "type" : "VEC3", "max" : [2.3227961063385, 14.4083404541016, 2.06874108314514], "min" : [-2.33753395080566, 5.99076795578003, -1.69590902328491]}, {"bufferView" : 1, "byteOffset" : 12, "componentType" : 5126, "count" : 1543, "type" : "VEC2", "max" : [0.980322003364563, -0.0122469998896122], "min" : [0.0210190005600452, -0.971964001655579]}, {"bufferView" : 1, "byteOffset" : 20, "componentType" : 5126, "count" : 1543, "type" : "VEC3", "max" : [0.999909639358521, 0.999748587608337, 0.999992370605469], "min" : [-0.999166667461395, -0.999770224094391, -0.999976217746735]}], "asset" : {"generator" : "Aspose.3D 20.2.1", "version" : "2.0"}, "buffers" : [{"uri" : "buffer.bin", "byteLength" : 65500}], "bufferViews" : [{"buffer" : 0, "byteOffset" : 0, "byteLength" : 16116, "target" : 34963}, {"buffer" : 0, "byteOffset" : 16120, "byteLength" : 49376, "byteStride" : 32, "target" : 34962}], "meshes" : [{"primitives" : [{"attributes" : {"POSITION" : 1, "TEXCOORD_0" : 2, "NORMAL" : 3}, "indices" : 0, "mode" : 4}]}], "nodes" : [{"mesh" : 0, "name" : ""}], "scene" : 0, "scenes" : [{"nodes" : [0]}]}