{
	"accessors" : 
	[
		{
			"bufferView" : 2,
			"byteOffset" : 0,
			"componentType" : 5126,
			"count" : 19782,
			"max" : 
			[
				1,
				1,
				1,
				1
			],
			"min" : 
			[
				0.1939721554517746,
				0.08919350802898407,
				0.03994716703891754,
				1
			],
			"name" : "accessor_color_m0-PolyPaper23_-519828",
			"type" : "VEC4"
		},
		{
			"bufferView" : 2,
			"byteOffset" : 316512,
			"componentType" : 5126,
			"count" : 19974,
			"max" : 
			[
				1,
				1,
				1,
				1
			],
			"min" : 
			[
				0.05637409910559654,
				0.08919350802898407,
				0.03994716703891754,
				1
			],
			"name" : "accessor_color_m3-PolyPaper20_-519846",
			"type" : "VEC4"
		},
		{
			"bufferView" : 2,
			"byteOffset" : 636096,
			"componentType" : 5126,
			"count" : 2638,
			"max" : 
			[
				1,
				1,
				1,
				1
			],
			"min" : 
			[
				0.006584956776350737,
				0.006584956776350737,
				0.006584956776350737,
				1
			],
			"name" : "accessor_color_m4-PolyPaper20_-519852",
			"type" : "VEC4"
		},
		{
			"bufferView" : 0,
			"byteOffset" : 0,
			"componentType" : 5123,
			"count" : 29232,
			"max" : 
			[
				19781
			],
			"min" : 
			[
				0
			],
			"name" : "accessor_indices_0_m0-PolyPaper23_-519828",
			"type" : "SCALAR"
		},
		{
			"bufferView" : 0,
			"byteOffset" : 58464,
			"componentType" : 5123,
			"count" : 28926,
			"max" : 
			[
				19973
			],
			"min" : 
			[
				0
			],
			"name" : "accessor_indices_0_m3-PolyPaper20_-519846",
			"type" : "SCALAR"
		},
		{
			"bufferView" : 0,
			"byteOffset" : 116316,
			"componentType" : 5123,
			"count" : 3924,
			"max" : 
			[
				2637
			],
			"min" : 
			[
				0
			],
			"name" : "accessor_indices_0_m4-PolyPaper20_-519852",
			"type" : "SCALAR"
		},
		{
			"bufferView" : 1,
			"byteOffset" : 237384,
			"componentType" : 5126,
			"count" : 19782,
			"max" : 
			[
				0.9997729,
				0.9998271,
				0.9999242
			],
			"min" : 
			[
				-0.9998108,
				-0.998539,
				-0.999924
			],
			"name" : "accessor_normal_m0-PolyPaper23_-519828",
			"type" : "VEC3"
		},
		{
			"bufferView" : 1,
			"byteOffset" : 714456,
			"componentType" : 5126,
			"count" : 19974,
			"max" : 
			[
				0.9999747,
				0.9997463,
				0.99992
			],
			"min" : 
			[
				-0.9999674,
				-0.9999708,
				-0.9999055
			],
			"name" : "accessor_normal_m3-PolyPaper20_-519846",
			"type" : "VEC3"
		},
		{
			"bufferView" : 1,
			"byteOffset" : 985800,
			"componentType" : 5126,
			"count" : 2638,
			"max" : 
			[
				0.9990124,
				0.9999171,
				0.9989988
			],
			"min" : 
			[
				-0.9989913,
				-0.9999171,
				-0.9996912
			],
			"name" : "accessor_normal_m4-PolyPaper20_-519852",
			"type" : "VEC3"
		},
		{
			"bufferView" : 1,
			"byteOffset" : 0,
			"componentType" : 5126,
			"count" : 19782,
			"max" : 
			[
				1.233866,
				1.740217,
				-0.006461705
			],
			"min" : 
			[
				-0.4428157,
				-1.496964,
				-2.023597
			],
			"name" : "accessor_position_m0-PolyPaper23_-519828",
			"type" : "VEC3"
		},
		{
			"bufferView" : 1,
			"byteOffset" : 474768,
			"componentType" : 5126,
			"count" : 19974,
			"max" : 
			[
				1.387263,
				1.810653,
				-0.1323684
			],
			"min" : 
			[
				-0.6629718,
				-1.440747,
				-2.036949
			],
			"name" : "accessor_position_m3-PolyPaper20_-519846",
			"type" : "VEC3"
		},
		{
			"bufferView" : 1,
			"byteOffset" : 954144,
			"componentType" : 5126,
			"count" : 2638,
			"max" : 
			[
				0.7567974,
				1.814621,
				-0.1249943
			],
			"min" : 
			[
				-0.5170504,
				0.1198106,
				-1.371892
			],
			"name" : "accessor_position_m4-PolyPaper20_-519852",
			"type" : "VEC3"
		}
	],
	"asset" : 
	{
		"copyright" : "Unknown",
		"generator" : "glTF 1-to-2 Upgrader for Google Blocks",
		"version" : "2.0"
	},
	"bufferViews" : 
	[
		{
			"buffer" : 0,
			"byteLength" : 124164,
			"byteOffset" : 0,
			"name" : "ushortBufferView",
			"target" : 34963
		},
		{
			"buffer" : 0,
			"byteLength" : 1017456,
			"byteOffset" : 124164,
			"byteStride" : 12,
			"name" : "vec3BufferView",
			"target" : 34962
		},
		{
			"buffer" : 0,
			"byteLength" : 678304,
			"byteOffset" : 1141620,
			"byteStride" : 16,
			"name" : "vec4BufferView",
			"target" : 34962
		}
	],
	"buffers" : 
	[
		{
			"byteLength" : 1819924,
			"name" : "model",
			"uri" : "model.bin"
		}
	],
	"materials" : 
	[
		{
			"alphaMode" : "OPAQUE",
			"doubleSided" : false,
			"name" : "BlocksPaper",
			"pbrMetallicRoughness" : 
			{
				"baseColorFactor" : 
				[
					1,
					1,
					1,
					1
				],
				"metallicFactor" : 0,
				"roughnessFactor" : 0.6
			}
		},
		{
			"alphaMode" : "BLEND",
			"doubleSided" : false,
			"name" : "BlocksGlass",
			"pbrMetallicRoughness" : 
			{
				"baseColorFactor" : 
				[
					0.2,
					0.2,
					1,
					0.3
				],
				"metallicFactor" : 1,
				"roughnessFactor" : 0.4
			}
		},
		{
			"alphaMode" : "OPAQUE",
			"doubleSided" : true,
			"name" : "BlocksGem",
			"pbrMetallicRoughness" : 
			{
				"baseColorFactor" : 
				[
					1,
					0.4,
					1,
					1
				],
				"metallicFactor" : 0,
				"roughnessFactor" : 0.1
			}
		}
	],
	"meshes" : 
	[
		{
			"name" : "mesh_m0-PolyPaper23_-519828",
			"primitives" : 
			[
				{
					"attributes" : 
					{
						"COLOR_0" : 0,
						"NORMAL" : 6,
						"POSITION" : 9
					},
					"indices" : 3,
					"material" : 0,
					"mode" : 4
				}
			]
		},
		{
			"name" : "mesh_m3-PolyPaper20_-519846",
			"primitives" : 
			[
				{
					"attributes" : 
					{
						"COLOR_0" : 1,
						"NORMAL" : 7,
						"POSITION" : 10
					},
					"indices" : 4,
					"material" : 0,
					"mode" : 4
				}
			]
		},
		{
			"name" : "mesh_m4-PolyPaper20_-519852",
			"primitives" : 
			[
				{
					"attributes" : 
					{
						"COLOR_0" : 2,
						"NORMAL" : 8,
						"POSITION" : 11
					},
					"indices" : 5,
					"material" : 0,
					"mode" : 4
				}
			]
		}
	],
	"nodes" : 
	[
		{
			"matrix" : 
			[
				1,
				0,
				0,
				0,
				0,
				1,
				0,
				0,
				0,
				0,
				1,
				0,
				0,
				0,
				0,
				1
			],
			"mesh" : 0,
			"name" : "node_MeshObject-1329888256-PolyPaper23"
		},
		{
			"matrix" : 
			[
				1,
				0,
				0,
				0,
				0,
				1,
				0,
				0,
				0,
				0,
				1,
				0,
				0,
				0,
				0,
				1
			],
			"mesh" : 2,
			"name" : "node_MeshObject1248841728-PolyPaper20"
		},
		{
			"matrix" : 
			[
				1,
				0,
				0,
				0,
				0,
				1,
				0,
				0,
				0,
				0,
				1,
				0,
				0,
				0,
				0,
				1
			],
			"mesh" : 1,
			"name" : "node_MeshObject676762624-PolyPaper20"
		}
	],
	"scene" : 0,
	"scenes" : 
	[
		{
			"extras" : {},
			"name" : "defaultScene",
			"nodes" : 
			[
				0,
				2,
				1
			]
		}
	]
}